# xmcd
#
# Track frame offsets:
#	150
#	6494
#	25294
#	46233
#	65999
#	87720
#	106300
#	122637
#	141717
#	156366
#	177614
#
# Disc length: 2591 seconds
#
# Revision: 0
# Processed by: cddbd v1.4PL0 Copyright (c) Steve Scherf et al.
# Submitted via: EasyCDDAExtractor 4.5.2.1
#
DISCID=aa0a1d0b
DTITLE=Vision Divine - Send Me An Angel
DYEAR=2001
DGENRE=Metal
TTITLE0=Incipit
TTITLE1=Send Me An Angel
TTITLE2=Pain
TTITLE3=Away From You
TTITLE4=Black and White
TTITLE5=The Call
TTITLE6=Taste Of A Goodbye
TTITLE7=Apocalypse Coming
TTITLE8=Nemesis (Instrumental)
TTITLE9=Flame Of Hate
TTITLE10=Take On Me
EXTD=
EXTT0=
EXTT1=
EXTT2=
EXTT3=
EXTT4=
EXTT5=
EXTT6=
EXTT7=
EXTT8=
EXTT9=
EXTT10=
PLAYORDER=
